<?xml version="1.0" standalone="no"?>
<!DOCTYPE svg PUBLIC "-//W3C//DTD SVG 20010904//EN"
 "http://www.w3.org/TR/2001/REC-SVG-20010904/DTD/svg10.dtd">
<svg version="1.0" xmlns="http://www.w3.org/2000/svg"
 width="132.000000pt" height="132.000000pt" viewBox="0 0 132.000000 132.000000"
 preserveAspectRatio="xMidYMid meet">
<metadata>
Created by potrace 1.11, written by Peter Selinger 2001-2013
</metadata>
<g transform="translate(0.000000,132.000000) scale(0.100000,-0.100000)"
fill="#000000" stroke="none">
<path d="M919 1272 c-35 -21 -71 -41 -79 -45 -8 -4 -33 -18 -55 -32 -22 -14
-49 -30 -60 -36 -11 -5 -29 -15 -40 -22 -11 -7 -97 -56 -192 -111 -152 -87
-172 -102 -175 -127 -3 -16 -1 -29 4 -29 5 0 6 -4 3 -10 -20 -33 19 -21 113
34 59 34 132 76 162 93 30 17 110 62 177 100 67 39 125 68 128 65 3 -3 5 -33
5 -68 l0 -62 -141 -81 c-78 -45 -145 -81 -150 -81 -5 0 -9 -3 -9 -7 0 -5 -10
-13 -23 -19 -52 -25 -112 -58 -117 -64 -3 -4 -35 -24 -72 -44 -38 -21 -68 -41
-68 -44 1 -7 236 -145 258 -150 6 -2 12 -8 12 -13 0 -6 4 -8 9 -5 5 3 14 -1
21 -9 7 -8 16 -15 21 -15 4 0 44 -22 89 -49 l81 -49 -201 -115 c-137 -79 -203
-111 -206 -103 -3 7 -4 39 -2 71 l3 57 60 34 c33 19 81 46 108 61 l47 26 -41
28 c-41 26 -60 28 -86 5 -6 -6 -50 -33 -97 -60 -63 -36 -86 -55 -87 -70 -4
-93 -1 -308 4 -312 3 -4 52 20 109 52 56 33 110 64 120 69 10 6 99 57 199 115
99 58 194 112 210 120 16 8 29 18 29 22 0 3 -108 68 -240 145 -132 76 -238
142 -237 148 2 5 18 17 37 28 18 10 91 52 162 93 72 41 134 74 138 74 5 0 10
4 12 8 2 4 33 25 71 45 50 29 67 43 68 60 0 30 1 278 0 300 -1 24 -7 22 -82
-21z"/>
<path d="M737 749 c-20 -11 -38 -23 -41 -27 -5 -8 282 -178 294 -175 3 1 8 12
11 25 12 50 -3 66 -117 132 l-111 63 -36 -18z"/>
</g>
</svg>
